<svg xmlns="http://www.w3.org/2000/svg" width="215.88" height="35" viewBox="0 0 215.88 35"><rect class="svg__rect" x="0" y="0" width="107.36999999999999" height="35" fill="#31C4F3"/><rect class="svg__rect" x="105.36999999999999" y="0" width="110.50999999999999" height="35" fill="#389AD5"/><path class="svg__text" d="M13.95 18.19L13.95 18.19L13.95 17.39Q13.95 16.19 14.38 15.27Q14.80 14.35 15.60 13.85Q16.40 13.35 17.45 13.35L17.45 13.35Q18.86 13.35 19.73 14.12Q20.59 14.89 20.73 16.29L20.73 16.29L19.25 16.29Q19.14 15.37 18.71 14.96Q18.28 14.55 17.45 14.55L17.45 14.55Q16.48 14.55 15.97 15.26Q15.45 15.96 15.44 17.33L15.44 17.33L15.44 18.09Q15.44 19.47 15.93 20.20Q16.43 20.92 17.38 20.92L17.38 20.92Q18.25 20.92 18.69 20.53Q19.13 20.14 19.25 19.22L19.25 19.22L20.73 19.22Q20.60 20.59 19.72 21.35Q18.84 22.12 17.38 22.12L17.38 22.12Q16.36 22.12 15.59 21.63Q14.81 21.15 14.39 20.26Q13.97 19.37 13.95 18.19ZM30.62 22L25.04 22L25.04 13.47L30.58 13.47L30.58 14.66L26.52 14.66L26.52 17.02L30.03 17.02L30.03 18.19L26.52 18.19L26.52 20.82L30.62 20.82L30.62 22ZM36.30 22L34.81 22L34.81 13.47L37.81 13.47Q39.29 13.47 40.09 14.13Q40.89 14.79 40.89 16.05L40.89 16.05Q40.89 16.90 40.48 17.48Q40.07 18.06 39.33 18.37L39.33 18.37L41.25 21.92L41.25 22L39.66 22L37.95 18.71L36.30 18.71L36.30 22ZM36.30 14.66L36.30 17.52L37.82 17.52Q38.57 17.52 38.99 17.15Q39.41 16.77 39.41 16.11L39.41 16.11Q39.41 15.43 39.02 15.05Q38.63 14.68 37.86 14.66L37.86 14.66L36.30 14.66ZM46.97 14.66L44.33 14.66L44.33 13.47L51.10 13.47L51.10 14.66L48.44 14.66L48.44 22L46.97 22L46.97 14.66ZM56.42 22L54.95 22L54.95 13.47L56.42 13.47L56.42 22ZM62.72 22L61.23 22L61.23 13.47L66.65 13.47L66.65 14.66L62.72 14.66L62.72 17.20L66.15 17.20L66.15 18.38L62.72 18.38L62.72 22ZM72.38 22L70.90 22L70.90 13.47L72.38 13.47L72.38 22ZM82.77 22L77.19 22L77.19 13.47L82.72 13.47L82.72 14.66L78.67 14.66L78.67 17.02L82.17 17.02L82.17 18.19L78.67 18.19L78.67 20.82L82.77 20.82L82.77 22ZM89.42 22L86.96 22L86.96 13.47L89.48 13.47Q90.61 13.47 91.49 13.97Q92.36 14.48 92.84 15.40Q93.32 16.33 93.32 17.52L93.32 17.52L93.32 17.95Q93.32 19.16 92.84 20.08Q92.36 21.00 91.46 21.50Q90.57 22 89.42 22L89.42 22ZM88.44 14.66L88.44 20.82L89.41 20.82Q90.58 20.82 91.20 20.09Q91.82 19.36 91.84 17.99L91.84 17.99L91.84 17.52Q91.84 16.13 91.23 15.40Q90.63 14.66 89.48 14.66L89.48 14.66L88.44 14.66Z" fill="#FFFFFF"/><path class="svg__text" d="M125.94 22L119.56 22L119.56 13.60L121.94 13.60L121.94 20.11L125.94 20.11L125.94 22ZM132.74 22L130.36 22L130.36 13.60L132.74 13.60L132.74 22ZM140.25 22L137.92 22L137.92 13.60L139.87 13.60L143.58 18.07L143.58 13.60L145.91 13.60L145.91 22L143.96 22L140.25 17.52L140.25 22ZM153.43 22L151.07 22L151.07 13.60L153.43 13.60L153.43 17.09L156.68 13.60L159.29 13.60L155.86 17.32L159.47 22L156.71 22L154.31 18.95L153.43 19.90L153.43 22ZM170.32 22L163.58 22L163.58 13.60L170.17 13.60L170.17 15.44L165.93 15.44L165.93 16.85L169.67 16.85L169.67 18.63L165.93 18.63L165.93 20.17L170.32 20.17L170.32 22ZM179.10 22L175.13 22L175.13 13.60L179.10 13.60Q180.48 13.60 181.55 14.12Q182.62 14.63 183.21 15.58Q183.79 16.53 183.79 17.80L183.79 17.80Q183.79 19.07 183.21 20.02Q182.62 20.97 181.55 21.48Q180.48 22 179.10 22L179.10 22ZM177.51 15.50L177.51 20.10L179.01 20.10Q180.09 20.10 180.74 19.49Q181.39 18.88 181.39 17.80L181.39 17.80Q181.39 16.72 180.74 16.11Q180.09 15.50 179.01 15.50L179.01 15.50L177.51 15.50ZM190.90 22L188.52 22L188.52 13.60L190.90 13.60L190.90 22ZM198.41 22L196.08 22L196.08 13.60L198.03 13.60L201.74 18.07L201.74 13.60L204.07 13.60L204.07 22L202.12 22L198.41 17.52L198.41 22Z" fill="#FFFFFF" x="118.36999999999999"/></svg>