<svg xmlns="http://www.w3.org/2000/svg" width="386.43" height="35" viewBox="0 0 386.43 35"><rect class="svg__rect" x="0" y="0" width="107.36999999999999" height="35" fill="#31C4F3"/><rect class="svg__rect" x="105.36999999999999" y="0" width="281.06" height="35" fill="#389AD5"/><path class="svg__text" d="M13.95 18.19L13.95 18.19L13.95 17.39Q13.95 16.19 14.38 15.27Q14.80 14.35 15.60 13.85Q16.40 13.35 17.45 13.35L17.45 13.35Q18.86 13.35 19.73 14.12Q20.59 14.89 20.73 16.29L20.73 16.29L19.25 16.29Q19.14 15.37 18.71 14.96Q18.28 14.55 17.45 14.55L17.45 14.55Q16.48 14.55 15.97 15.26Q15.45 15.96 15.44 17.33L15.44 17.33L15.44 18.09Q15.44 19.47 15.93 20.20Q16.43 20.92 17.38 20.92L17.38 20.92Q18.25 20.92 18.69 20.53Q19.13 20.14 19.25 19.22L19.25 19.22L20.73 19.22Q20.60 20.59 19.72 21.35Q18.84 22.12 17.38 22.12L17.38 22.12Q16.36 22.12 15.59 21.63Q14.81 21.15 14.39 20.26Q13.97 19.37 13.95 18.19ZM30.62 22L25.04 22L25.04 13.47L30.58 13.47L30.58 14.66L26.52 14.66L26.52 17.02L30.03 17.02L30.03 18.19L26.52 18.19L26.52 20.82L30.62 20.82L30.62 22ZM36.30 22L34.81 22L34.81 13.47L37.81 13.47Q39.29 13.47 40.09 14.13Q40.89 14.79 40.89 16.05L40.89 16.05Q40.89 16.90 40.48 17.48Q40.07 18.06 39.33 18.37L39.33 18.37L41.25 21.92L41.25 22L39.66 22L37.95 18.71L36.30 18.71L36.30 22ZM36.30 14.66L36.30 17.52L37.82 17.52Q38.57 17.52 38.99 17.15Q39.41 16.77 39.41 16.11L39.41 16.11Q39.41 15.43 39.02 15.05Q38.63 14.68 37.86 14.66L37.86 14.66L36.30 14.66ZM46.97 14.66L44.33 14.66L44.33 13.47L51.10 13.47L51.10 14.66L48.44 14.66L48.44 22L46.97 22L46.97 14.66ZM56.42 22L54.95 22L54.95 13.47L56.42 13.47L56.42 22ZM62.72 22L61.23 22L61.23 13.47L66.65 13.47L66.65 14.66L62.72 14.66L62.72 17.20L66.15 17.20L66.15 18.38L62.72 18.38L62.72 22ZM72.38 22L70.90 22L70.90 13.47L72.38 13.47L72.38 22ZM82.77 22L77.19 22L77.19 13.47L82.72 13.47L82.72 14.66L78.67 14.66L78.67 17.02L82.17 17.02L82.17 18.19L78.67 18.19L78.67 20.82L82.77 20.82L82.77 22ZM89.42 22L86.96 22L86.96 13.47L89.48 13.47Q90.61 13.47 91.49 13.97Q92.36 14.48 92.84 15.40Q93.32 16.33 93.32 17.52L93.32 17.52L93.32 17.95Q93.32 19.16 92.84 20.08Q92.36 21.00 91.46 21.50Q90.57 22 89.42 22L89.42 22ZM88.44 14.66L88.44 20.82L89.41 20.82Q90.58 20.82 91.20 20.09Q91.82 19.36 91.84 17.99L91.84 17.99L91.84 17.52Q91.84 16.13 91.23 15.40Q90.63 14.66 89.48 14.66L89.48 14.66L88.44 14.66Z" fill="#FFFFFF"/><path class="svg__text" d="M119.49 18.26L119.49 18.26L119.49 13.60L121.87 13.60L121.87 18.19Q121.87 20.20 123.46 20.20L123.46 20.20Q125.04 20.20 125.04 18.19L125.04 18.19L125.04 13.60L127.39 13.60L127.39 18.26Q127.39 20.13 126.35 21.15Q125.31 22.17 123.44 22.17L123.44 22.17Q121.56 22.17 120.52 21.15Q119.49 20.13 119.49 18.26ZM134.80 22L132.47 22L132.47 13.60L134.43 13.60L138.14 18.07L138.14 13.60L140.46 13.60L140.46 22L138.51 22L134.80 17.52L134.80 22ZM148.01 22L145.63 22L145.63 13.60L148.01 13.60L148.01 22ZM155.76 22L152.17 13.60L154.74 13.60L157.02 19.07L159.35 13.60L161.70 13.60L158.10 22L155.76 22ZM172.60 22L165.85 22L165.85 13.60L172.44 13.60L172.44 15.44L168.21 15.44L168.21 16.85L171.94 16.85L171.94 18.63L168.21 18.63L168.21 20.17L172.60 20.17L172.60 22ZM179.78 22L177.40 22L177.40 13.60L181.25 13.60Q182.39 13.60 183.23 13.98Q184.06 14.35 184.52 15.06Q184.98 15.76 184.98 16.71L184.98 16.71Q184.98 17.62 184.55 18.30Q184.12 18.98 183.33 19.36L183.33 19.36L185.14 22L182.60 22L181.08 19.77L179.78 19.77L179.78 22ZM179.78 15.47L179.78 17.93L181.10 17.93Q181.83 17.93 182.20 17.61Q182.58 17.29 182.58 16.71L182.58 16.71Q182.58 16.12 182.20 15.79Q181.83 15.47 181.10 15.47L181.10 15.47L179.78 15.47ZM189.18 21.24L189.18 21.24L189.96 19.49Q190.52 19.86 191.26 20.09Q192.01 20.32 192.73 20.32L192.73 20.32Q194.09 20.32 194.10 19.64L194.10 19.64Q194.10 19.28 193.71 19.11Q193.32 18.93 192.45 18.74L192.45 18.74Q191.51 18.53 190.87 18.30Q190.23 18.06 189.78 17.55Q189.33 17.03 189.33 16.16L189.33 16.16Q189.33 15.39 189.74 14.77Q190.16 14.15 191.00 13.79Q191.83 13.43 193.04 13.43L193.04 13.43Q193.87 13.43 194.67 13.62Q195.48 13.80 196.09 14.17L196.09 14.17L195.36 15.93Q194.16 15.28 193.03 15.28L193.03 15.28Q192.32 15.28 192.00 15.49Q191.68 15.70 191.68 16.04L191.68 16.04Q191.68 16.37 192.06 16.54Q192.44 16.71 193.29 16.89L193.29 16.89Q194.25 17.10 194.88 17.33Q195.51 17.56 195.98 18.07Q196.44 18.58 196.44 19.46L196.44 19.46Q196.44 20.21 196.02 20.83Q195.60 21.44 194.76 21.80Q193.92 22.17 192.72 22.17L192.72 22.17Q191.70 22.17 190.74 21.92Q189.78 21.67 189.18 21.24ZM203.39 22L201.01 22L201.01 13.60L203.39 13.60L203.39 22ZM210.36 15.48L207.78 15.48L207.78 13.60L215.30 13.60L215.30 15.48L212.73 15.48L212.73 22L210.36 22L210.36 15.48ZM221.80 18.95L218.59 13.60L221.10 13.60L223.09 16.94L225.09 13.60L227.39 13.60L224.17 18.99L224.17 22L221.80 22L221.80 18.95ZM238.02 17.80L238.02 17.80Q238.02 16.55 238.62 15.55Q239.22 14.56 240.29 14.00Q241.35 13.43 242.68 13.43L242.68 13.43Q244.01 13.43 245.07 14.00Q246.14 14.56 246.74 15.55Q247.35 16.55 247.35 17.80L247.35 17.80Q247.35 19.05 246.74 20.04Q246.14 21.04 245.08 21.60Q244.02 22.17 242.68 22.17L242.68 22.17Q241.35 22.17 240.29 21.60Q239.22 21.04 238.62 20.04Q238.02 19.05 238.02 17.80ZM240.41 17.80L240.41 17.80Q240.41 18.51 240.72 19.05Q241.02 19.60 241.53 19.90Q242.05 20.20 242.68 20.20L242.68 20.20Q243.32 20.20 243.84 19.90Q244.35 19.60 244.65 19.05Q244.95 18.51 244.95 17.80L244.95 17.80Q244.95 17.09 244.65 16.54Q244.35 16 243.84 15.70Q243.32 15.40 242.68 15.40L242.68 15.40Q242.04 15.40 241.53 15.70Q241.02 16 240.72 16.54Q240.41 17.09 240.41 17.80ZM254.46 22L252.08 22L252.08 13.60L258.67 13.60L258.67 15.44L254.46 15.44L254.46 17.28L258.17 17.28L258.17 19.12L254.46 19.12L254.46 22ZM272.43 22L270.24 22L270.24 13.60L272.19 13.60L275.15 18.45L278.03 13.60L279.98 13.60L280.01 22L277.83 22L277.80 17.55L275.64 21.17L274.59 21.17L272.43 17.67L272.43 22ZM284.74 17.80L284.74 17.80Q284.74 16.55 285.34 15.55Q285.95 14.56 287.01 14.00Q288.07 13.43 289.40 13.43L289.40 13.43Q290.73 13.43 291.80 14.00Q292.86 14.56 293.47 15.55Q294.07 16.55 294.07 17.80L294.07 17.80Q294.07 19.05 293.47 20.04Q292.86 21.04 291.80 21.60Q290.74 22.17 289.40 22.17L289.40 22.17Q288.07 22.17 287.01 21.60Q285.95 21.04 285.34 20.04Q284.74 19.05 284.74 17.80ZM287.14 17.80L287.14 17.80Q287.14 18.51 287.44 19.05Q287.74 19.60 288.26 19.90Q288.77 20.20 289.40 20.20L289.40 20.20Q290.04 20.20 290.56 19.90Q291.07 19.60 291.37 19.05Q291.67 18.51 291.67 17.80L291.67 17.80Q291.67 17.09 291.37 16.54Q291.07 16 290.56 15.70Q290.04 15.40 289.40 15.40L289.40 15.40Q288.76 15.40 288.25 15.70Q287.74 16 287.44 16.54Q287.14 17.09 287.14 17.80ZM301.18 22L298.80 22L298.80 13.60L302.65 13.60Q303.79 13.60 304.63 13.98Q305.46 14.35 305.92 15.06Q306.38 15.76 306.38 16.71L306.38 16.71Q306.38 17.62 305.95 18.30Q305.52 18.98 304.73 19.36L304.73 19.36L306.54 22L304.00 22L302.48 19.77L301.18 19.77L301.18 22ZM301.18 15.47L301.18 17.93L302.50 17.93Q303.23 17.93 303.60 17.61Q303.98 17.29 303.98 16.71L303.98 16.71Q303.98 16.12 303.60 15.79Q303.23 15.47 302.50 15.47L302.50 15.47L301.18 15.47ZM312.58 22L310.16 22L313.87 13.60L316.21 13.60L319.93 22L317.46 22L316.80 20.37L313.25 20.37L312.58 22ZM315.02 15.93L313.94 18.61L316.10 18.61L315.02 15.93ZM325.87 15.48L323.29 15.48L323.29 13.60L330.81 13.60L330.81 15.48L328.25 15.48L328.25 22L325.87 22L325.87 15.48ZM335.11 18.26L335.11 18.26L335.11 13.60L337.49 13.60L337.49 18.19Q337.49 20.20 339.09 20.20L339.09 20.20Q340.67 20.20 340.67 18.19L340.67 18.19L340.67 13.60L343.01 13.60L343.01 18.26Q343.01 20.13 341.97 21.15Q340.93 22.17 339.06 22.17L339.06 22.17Q337.19 22.17 336.15 21.15Q335.11 20.13 335.11 18.26ZM350.18 22L347.45 13.60L349.90 13.60L351.59 18.96L353.36 13.60L355.55 13.60L357.24 19.01L359.01 13.60L361.27 13.60L358.55 22L356.01 22L354.40 16.89L352.72 22L350.18 22ZM367.20 22L364.78 22L368.49 13.60L370.83 13.60L374.55 22L372.08 22L371.42 20.37L367.87 20.37L367.20 22ZM369.64 15.93L368.56 18.61L370.72 18.61L369.64 15.93Z" fill="#FFFFFF" x="118.36999999999999"/></svg>